<?xml version="1.0" standalone="no"?>
<!DOCTYPE svg PUBLIC "-//W3C//DTD SVG 20010904//EN"
 "http://www.w3.org/TR/2001/REC-SVG-20010904/DTD/svg10.dtd">
<svg version="1.0" xmlns="http://www.w3.org/2000/svg"
 width="400.000000pt" height="400.000000pt" viewBox="0 0 400.000000 400.000000"
 preserveAspectRatio="xMidYMid meet">
<metadata>
Created by potrace 1.14, written by Peter Selinger 2001-2017
</metadata>
<g transform="translate(0.000000,400.000000) scale(0.100000,-0.100000)"
fill="#000000" stroke="none">
<path d="M3988 2000 c-2 -1100 0 -2000 5 -2000 4 0 7 900 7 2000 0 1100 -2
2000 -5 2000 -3 0 -6 -900 -7 -2000z"/>
<path d="M1729 3641 c-283 -53 -508 -191 -645 -397 -69 -103 -100 -174 -133
-304 -23 -89 -35 -115 -77 -170 -89 -118 -154 -297 -154 -422 1 -114 55 -259
128 -340 157 -175 476 -225 942 -147 123 21 331 76 400 106 19 9 80 19 135 23
115 9 173 30 235 86 22 21 52 56 66 80 13 23 42 53 63 67 l38 25 29 -59 c33
-70 105 -142 170 -171 66 -29 176 -35 249 -13 142 41 219 136 256 313 22 109
22 107 -76 259 -49 75 -127 121 -237 138 l-38 6 0 80 c0 274 -261 566 -557
623 -54 10 -82 22 -119 51 -64 49 -232 129 -314 150 -74 19 -292 28 -361 16z
m375 -36 c97 -28 201 -76 275 -128 l46 -32 -40 -2 c-251 -16 -444 -52 -658
-124 -146 -49 -352 -140 -433 -191 -29 -19 -45 -23 -52 -16 -23 23 -174 -86
-188 -136 -4 -11 -29 -41 -57 -66 l-50 -45 7 40 c26 144 115 319 220 432 146
156 342 257 571 293 99 15 258 4 359 -25z m450 -201 c32 -8 93 -32 136 -54
224 -117 366 -318 378 -536 4 -89 4 -91 -19 -97 -13 -4 -35 -7 -49 -7 -14 0
-43 -9 -65 -19 l-41 -18 0 66 c0 99 -34 150 -126 191 -117 51 -326 49 -563 -6
-60 -14 -131 -25 -158 -24 -26 0 -85 -4 -130 -11 -89 -12 -104 -19 -682 -331
-121 -65 -231 -118 -245 -118 -25 -1 -77 -29 -117 -64 -82 -72 -83 -73 -83
-118 0 -89 64 -142 146 -120 59 16 64 15 64 -8 0 -12 7 -34 15 -50 84 -162
550 -182 1017 -43 l86 26 29 -21 c16 -11 41 -24 56 -27 15 -4 27 -11 27 -16 0
-12 -195 -73 -330 -103 -191 -42 -363 -59 -550 -53 -231 7 -356 46 -459 142
-162 152 -200 390 -100 621 35 79 123 204 193 274 l66 64 0 -31 c0 -17 8 -41
19 -54 l18 -23 72 49 71 49 0 67 c0 84 0 84 205 185 388 190 858 282 1119 218z
m-1314 -300 c0 -3 -5 -15 -12 -27 -6 -12 -11 -47 -10 -77 2 -53 0 -57 -30 -80
-18 -13 -47 -34 -64 -47 -30 -22 -33 -23 -49 -7 -13 14 -16 30 -13 71 5 62 20
81 103 134 58 38 75 45 75 33z m1514 -185 c39 -16 70 -37 90 -62 28 -36 31
-45 31 -113 l0 -73 -46 -48 c-26 -26 -52 -58 -58 -71 -7 -12 -17 -20 -23 -16
-6 4 -8 3 -5 -3 4 -6 0 -14 -9 -17 -20 -8 -57 12 -48 25 3 6 -4 5 -16 -3 -19
-11 -24 -11 -34 6 -28 49 -103 118 -155 143 -49 25 -67 28 -151 28 -84 0 -101
-4 -150 -28 -68 -35 -103 -67 -147 -134 -20 -33 -41 -53 -52 -53 -10 0 -25 -9
-32 -20 -13 -20 -22 -21 -203 -18 l-188 3 38 20 c370 193 368 191 438 273 37
42 70 89 73 103 5 24 13 28 101 48 161 35 201 40 347 37 122 -2 148 -5 199
-27z m-784 -65 c0 -16 11 -37 29 -53 l29 -27 -36 -43 c-19 -23 -46 -47 -59
-52 -58 -22 -133 69 -119 145 7 36 11 39 76 49 68 11 80 8 80 -19z m-170 -49
c0 -45 20 -85 61 -119 17 -15 30 -28 28 -30 -2 -1 -67 -36 -144 -76 -77 -40
-256 -135 -397 -211 -145 -78 -269 -139 -284 -139 -58 0 -110 99 -86 163 9 24
9 27 -4 17 -33 -28 -1 -155 45 -180 11 -5 32 -10 48 -10 l28 -1 -23 -19 c-22
-18 -27 -18 -58 -5 -40 17 -46 4 -6 -15 26 -13 26 -14 5 -18 -74 -12 -152 103
-129 191 7 28 86 80 108 72 7 -3 189 90 403 205 215 115 393 210 398 210 4 0
7 -16 7 -35z m695 -200 c25 -14 57 -44 71 -65 28 -42 27 -48 -21 -142 -13 -26
-13 -28 5 -28 13 0 20 -7 20 -19 0 -42 -20 -68 -79 -105 -34 -20 -61 -40 -61
-43 0 -5 42 18 93 52 32 21 34 9 8 -44 -26 -51 -91 -107 -140 -122 -53 -16
-103 -2 -158 46 -151 129 -123 397 50 484 58 30 149 24 212 -14z m716 17 c65
-26 136 -114 123 -154 -4 -13 -9 -25 -13 -28 -3 -3 -11 -20 -18 -37 -9 -28 -9
-33 3 -33 12 0 14 -9 9 -47 -20 -148 -148 -266 -253 -235 -94 28 -176 135
-184 237 l-3 40 81 3 81 3 27 49 27 50 -65 0 c-36 0 -66 2 -66 4 0 2 15 26 33
54 17 27 40 64 50 82 17 32 18 32 80 27 34 -3 74 -9 88 -15z m-181 -8 c0 -10
-21 -48 -53 -96 -23 -34 -39 -48 -54 -48 -29 0 -29 11 1 59 32 49 106 110 106
85z m-320 -120 c8 -8 17 -32 21 -52 8 -33 8 -32 4 11 -6 60 14 73 53 34 49
-49 26 -177 -31 -177 -13 0 -28 5 -34 11 -8 8 -13 8 -17 0 -15 -24 -26 -8 -26
37 0 27 -7 71 -15 98 -8 27 -15 50 -15 52 0 10 50 -1 60 -14z m-759 -167 c14
-18 36 -63 50 -101 14 -40 39 -86 61 -111 l37 -42 -72 -21 c-184 -55 -337 -80
-522 -89 -164 -7 -278 6 -372 44 -111 44 -148 121 -78 159 20 10 42 29 50 40
11 18 97 74 111 74 3 0 -10 -13 -27 -28 -49 -44 -38 -112 17 -112 20 0 37 19
88 98 34 54 74 103 87 109 16 8 108 12 284 12 l260 0 26 -32z m-1084 -17 c3
-49 25 -94 65 -131 l31 -28 -34 -6 c-67 -13 -118 27 -126 98 -4 36 -1 48 22
75 15 18 30 32 33 32 4 0 8 -18 9 -40z m1855 -22 c2 -16 -6 -30 -26 -45 -16
-13 -31 -21 -33 -20 -6 7 17 71 29 79 20 12 26 10 30 -14z"/>
<path d="M1342 1519 c-248 -15 -389 -55 -457 -130 -71 -78 -67 -184 10 -269
19 -21 24 -40 28 -115 3 -53 14 -114 26 -149 12 -33 21 -60 21 -62 0 -1 -24
-8 -52 -14 -299 -71 -734 -336 -883 -539 -28 -40 -35 -58 -35 -96 0 -41 2 -46
15 -35 11 9 12 16 4 26 -8 10 -6 12 11 9 13 -2 20 -2 17 2 -4 3 5 15 19 26 14
11 23 26 20 34 -3 8 -2 12 3 9 9 -6 39 23 33 31 -2 3 0 8 4 11 4 4 3 0 -1 -8
-8 -13 -6 -13 8 -1 9 7 14 18 10 24 -3 5 -2 7 4 4 5 -4 23 8 39 25 16 17 22
27 14 23 -8 -5 -12 -5 -8 0 4 4 1 13 -8 19 -13 10 -13 12 5 12 11 0 18 -3 15
-7 -2 -4 2 -9 9 -12 7 -3 32 15 55 38 23 24 42 41 42 39 0 -3 6 1 14 8 8 7 11
18 8 23 -3 6 -2 7 3 3 7 -6 95 49 95 59 0 2 -4 2 -9 -2 -5 -3 -12 -1 -16 4 -3
6 4 8 16 6 26 -5 108 50 87 58 -7 3 -2 5 12 4 18 -2 25 3 25 17 0 11 7 21 15
23 13 4 13 3 0 -6 -8 -5 -12 -13 -8 -16 9 -9 98 37 91 48 -3 6 -1 7 5 4 5 -4
32 2 59 14 73 32 158 58 213 65 28 4 50 9 50 13 0 7 114 4 178 -4 28 -4 42
-11 42 -21 0 -13 -10 -14 -65 -9 -73 8 -218 -2 -210 -15 3 -4 -3 -6 -13 -3
-26 6 -161 -41 -265 -93 -80 -40 -87 -47 -75 -62 12 -15 11 -16 -4 -4 -14 11
-23 9 -57 -13 -27 -19 -38 -32 -34 -43 4 -13 3 -14 -5 -4 -7 11 -16 8 -45 -11
-20 -14 -34 -27 -32 -31 3 -3 2 -4 -1 -1 -13 9 -176 -139 -166 -151 4 -4 2 -4
-4 -1 -6 4 -22 -5 -34 -18 -13 -14 -21 -25 -19 -25 2 0 -24 -30 -59 -66 -35
-36 -61 -71 -59 -78 6 -15 -11 -46 -24 -46 -6 0 -3 7 5 16 23 23 20 30 -4 9
-11 -10 -20 -29 -20 -42 0 -21 5 -23 43 -23 37 0 45 4 60 30 10 16 54 67 97
113 44 46 76 88 72 92 -4 5 -2 5 4 2 6 -4 19 2 28 12 14 15 14 20 4 25 -7 3
-4 4 7 1 14 -3 37 12 75 47 30 28 49 47 41 43 -10 -5 -12 -4 -7 4 4 6 11 9 16
6 5 -3 21 6 36 19 23 19 26 26 16 39 -10 12 -9 17 5 28 16 12 17 12 5 -2 -10
-13 -10 -19 2 -28 9 -7 17 -8 20 -2 3 5 3 11 -1 14 -5 2 -2 2 5 0 7 -1 24 5
38 14 20 12 22 18 12 25 -10 7 -9 8 4 4 21 -6 151 67 140 79 -4 5 -1 5 5 1 12
-6 51 8 63 23 3 4 46 20 95 35 113 36 288 49 298 22 6 -14 -5 -16 -76 -16 -74
-1 -139 -12 -222 -38 -52 -16 -165 -74 -165 -84 0 -5 -4 -7 -9 -4 -5 4 -22 -4
-38 -17 -15 -13 -35 -26 -43 -29 -36 -13 -150 -100 -144 -110 5 -7 2 -8 -5 -3
-18 11 -75 -46 -59 -58 9 -5 6 -6 -8 -2 -22 6 -46 -14 -50 -42 -2 -8 -6 -18
-10 -21 -4 -4 -4 2 0 12 7 20 7 20 -16 1 -47 -39 -130 -126 -126 -131 3 -2 11
2 18 11 7 8 17 15 23 15 5 0 -3 -10 -19 -22 -16 -13 -33 -23 -37 -23 -5 0 -25
-19 -44 -42 l-36 -43 775 0 775 0 104 45 c57 25 165 79 240 120 150 82 185 90
269 60 71 -25 170 -102 191 -149 10 -22 19 -49 19 -58 0 -10 4 -18 10 -18 11
0 -12 80 -32 109 -19 26 -92 82 -142 108 l-38 20 68 50 c80 59 200 180 236
238 31 50 68 148 67 178 0 15 -4 11 -12 -15 -8 -26 -16 -35 -24 -30 -10 6 -8
20 7 60 11 29 20 61 20 72 0 36 19 30 80 -26 91 -84 113 -129 118 -233 4 -95
-16 -174 -66 -261 -28 -47 -171 -197 -232 -243 l-35 -27 323 0 c177 0 322 2
322 5 0 10 -92 189 -132 257 -21 37 -67 105 -100 150 -58 76 -63 87 -69 149
-11 96 -73 188 -176 260 -20 14 -21 21 -16 97 3 45 9 82 13 82 20 0 82 80 100
128 35 94 20 182 -42 239 -41 38 -149 82 -243 98 -318 53 -794 76 -1153 54z
m181 -16 c-7 -2 -19 -2 -25 0 -7 3 -2 5 12 5 14 0 19 -2 13 -5z m85 0 c-10 -2
-26 -2 -35 0 -10 3 -2 5 17 5 19 0 27 -2 18 -5z m-291 -9 c-3 -3 -12 -4 -19
-1 -8 3 -5 6 6 6 11 1 17 -2 13 -5z m756 -1 c-7 -2 -19 -2 -25 0 -7 3 -2 5 12
5 14 0 19 -2 13 -5z m-126 -9 c-3 -3 -12 -4 -19 -1 -8 3 -5 6 6 6 11 1 17 -2
13 -5z m-690 -10 c-3 -3 -12 -4 -19 -1 -8 3 -5 6 6 6 11 1 17 -2 13 -5z m1026
-1 c-7 -2 -19 -2 -25 0 -7 3 -2 5 12 5 14 0 19 -2 13 -5z m-1090 -10 c-7 -2
-19 -2 -25 0 -7 3 -2 5 12 5 14 0 19 -2 13 -5z m880 -10 c-7 -2 -19 -2 -25 0
-7 3 -2 5 12 5 14 0 19 -2 13 -5z m84 1 c-3 -3 -12 -4 -19 -1 -8 3 -5 6 6 6
11 1 17 -2 13 -5z m-1234 -61 c-4 -11 -3 -14 5 -9 8 5 10 2 5 -9 -4 -13 -8
-14 -14 -4 -6 10 -11 10 -26 -1 -10 -8 -7 -2 6 13 28 31 33 33 24 10z m200
-10 c-7 -2 -19 -2 -25 0 -7 3 -2 5 12 5 14 0 19 -2 13 -5z m1034 -29 c-3 -3
-12 -4 -19 -1 -8 3 -5 6 6 6 11 1 17 -2 13 -5z m-1066 -21 c13 -16 12 -17 -3
-5 -9 8 -23 10 -29 6 -8 -4 -9 -3 -5 4 10 17 21 15 37 -5z m1677 -58 c-3 -3
-9 2 -12 12 -6 14 -5 15 5 6 7 -7 10 -15 7 -18z m-58 1 c0 -3 -4 -8 -10 -11
-5 -3 -10 -1 -10 4 0 6 5 11 10 11 6 0 10 -2 10 -4z m20 -19 c0 -2 -10 -12
-22 -23 l-23 -19 19 23 c18 21 26 27 26 19z m-1593 -33 c-3 -3 -12 -4 -19 -1
-8 3 -5 6 6 6 11 1 17 -2 13 -5z m1629 -26 c4 -7 3 -8 -4 -4 -7 4 -12 2 -12
-5 0 -7 -3 -10 -6 -6 -6 5 3 27 11 27 2 0 7 -5 11 -12z m-1822 -24 c3 -8 2
-12 -4 -9 -6 3 -10 10 -10 16 0 14 7 11 14 -7z m569 -1 c-7 -2 -21 -2 -30 0
-10 3 -4 5 12 5 17 0 24 -2 18 -5z m869 -5 c23 -19 41 -84 42 -151 1 -50 -3
-62 -23 -78 -26 -21 -86 -25 -124 -8 -44 20 -50 50 -26 142 11 45 25 88 31 95
6 6 27 12 47 12 21 0 44 -6 53 -12z m155 6 c-3 -3 -12 -4 -19 -1 -8 3 -5 6 6
6 11 1 17 -2 13 -5z m-1636 -21 c13 -16 12 -17 -3 -4 -10 7 -18 15 -18 17 0 8
8 3 21 -13z m27 -8 c-3 -3 -9 2 -12 12 -6 14 -5 15 5 6 7 -7 10 -15 7 -18z
m1539 19 c-3 -3 -12 -4 -19 -1 -8 3 -5 6 6 6 11 1 17 -2 13 -5z m-654 -11
c-18 -2 -48 -2 -65 0 -18 2 -4 4 32 4 36 0 50 -2 33 -4z m325 -10 c-16 -2 -40
-2 -55 0 -16 2 -3 4 27 4 30 0 43 -2 28 -4z m362 -8 c0 -1 -9 -5 -19 -8 -13
-3 -18 -1 -14 9 4 10 33 10 33 -1z m37 9 c-3 -3 -12 -4 -19 -1 -8 3 -5 6 6 6
11 1 17 -2 13 -5z m-1100 -10 c-3 -3 -12 -4 -19 -1 -8 3 -5 6 6 6 11 1 17 -2
13 -5z m90 0 c-3 -3 -12 -4 -19 -1 -8 3 -5 6 6 6 11 1 17 -2 13 -5z m420 0
c-3 -3 -12 -4 -19 -1 -8 3 -5 6 6 6 11 1 17 -2 13 -5z m656 -1 c-7 -2 -19 -2
-25 0 -7 3 -2 5 12 5 14 0 19 -2 13 -5z m-1602 -20 c-10 -4 -8 -9 9 -18 19
-10 20 -13 6 -18 -12 -5 -15 -3 -10 5 5 8 2 9 -10 5 -10 -4 -15 -3 -11 3 3 6
0 10 -7 10 -9 0 -9 3 2 10 8 5 20 9 25 9 6 0 4 -3 -4 -6z m1189 -110 c-11 -17
-11 -17 -6 0 3 10 7 31 7 45 l2 27 4 -27 c2 -15 -1 -35 -7 -45z m262 35 c-9
-9 -12 -7 -12 12 0 19 3 21 12 12 9 -9 9 -15 0 -24z m-279 -13 c-3 -9 -8 -14
-10 -11 -3 3 -2 9 2 15 9 16 15 13 8 -4z m527 11 c0 -2 -6 -9 -14 -15 -11 -9
-16 -9 -22 0 -4 7 -3 9 4 5 6 -3 13 -2 17 4 6 10 15 14 15 6z m-488 -48 c-7
-7 -12 -8 -12 -2 0 14 12 26 19 19 2 -3 -1 -11 -7 -17z m246 -13 c-3 -3 -9 2
-12 12 -6 14 -5 15 5 6 7 -7 10 -15 7 -18z m-220 -40 c12 -14 18 -25 13 -25
-5 0 -16 11 -25 25 -9 14 -15 25 -13 25 2 0 13 -11 25 -25z m-38 -29 c0 -3 -4
-8 -10 -11 -5 -3 -10 -1 -10 4 0 6 5 11 10 11 6 0 10 -2 10 -4z m447 -18 c-3
-8 -6 -5 -6 6 -1 11 2 17 5 13 3 -3 4 -12 1 -19z m-217 -2 c-4 -4 -16 -4 -26
2 -16 9 -14 10 8 9 15 -1 23 -6 18 -11z m-163 -18 c2 -17 0 -19 -7 -8 -5 8 -6
18 -4 22 8 12 10 10 11 -14z m20 -10 c-3 -8 -6 -5 -6 6 -1 11 2 17 5 13 3 -3
4 -12 1 -19z m31 -43 c-3 -3 -9 2 -12 12 -6 14 -5 15 5 6 7 -7 10 -15 7 -18z
m-1141 -30 c0 -8 -4 -12 -9 -9 -5 3 -6 10 -3 15 9 13 12 11 12 -6z m1013 9 c0
-8 -19 -13 -24 -6 -3 5 1 9 9 9 8 0 15 -2 15 -3z m56 -16 c4 -6 3 -8 -3 -5
-11 7 -45 -25 -42 -39 3 -20 -2 -31 -15 -31 -18 0 -6 29 27 65 24 26 24 26 33
10z m-1431 -58 c-3 -5 -14 -10 -23 -9 -14 0 -13 2 3 9 27 11 27 11 20 0z
m1786 -13 c-10 -9 -11 -8 -5 6 3 10 9 15 12 12 3 -3 0 -11 -7 -18z m-4 -34
c-3 -3 -13 1 -21 10 -8 8 -12 17 -9 20 3 3 12 -1 20 -9 9 -8 13 -18 10 -21z
m-407 13 c0 -2 -8 -10 -17 -17 -16 -13 -17 -12 -4 4 13 16 21 21 21 13z
m-1013 -12 c-3 -3 -12 -4 -19 -1 -8 3 -5 6 6 6 11 1 17 -2 13 -5z m-264 -11
c-7 -2 -19 -2 -25 0 -7 3 -2 5 12 5 14 0 19 -2 13 -5z m-66 -9 c-3 -3 -12 -4
-19 -1 -8 3 -5 6 6 6 11 1 17 -2 13 -5z m1738 -4 c-3 -5 -11 -10 -16 -10 -6 0
-7 5 -4 10 3 6 11 10 16 10 6 0 7 -4 4 -10z m-408 -28 c-10 -10 -14 -22 -10
-27 5 -4 2 -5 -5 -1 -11 6 -10 12 4 27 9 10 19 19 22 19 3 0 -2 -8 -11 -18z
m316 3 c-3 -9 -8 -14 -10 -11 -3 3 -2 9 2 15 9 16 15 13 8 -4z m-273 -9 c0 -2
-7 -7 -16 -10 -8 -3 -12 -2 -9 4 6 10 25 14 25 6z m372 -21 c-2 -14 -11 -25
-18 -25 -12 0 -11 5 2 25 9 14 17 25 19 25 1 0 0 -11 -3 -25z m-1835 9 c-3 -3
-12 -4 -19 -1 -8 3 -5 6 6 6 11 1 17 -2 13 -5z m1786 -18 c-10 -13 -20 -22
-22 -20 -4 4 29 44 36 44 2 0 -4 -11 -14 -24z m-1860 -3 c-10 -3 -10 -10 -2
-26 12 -22 12 -22 -8 -2 -19 19 -13 36 12 34 6 0 4 -3 -2 -6z m-40 -20 c14
-17 14 -18 -10 -20 -17 -1 -21 2 -13 7 7 4 9 13 6 19 -11 17 -1 13 17 -6z
m1499 8 c8 12 9 12 6 0 -2 -8 -11 -15 -20 -17 -12 -1 -15 3 -10 14 4 12 7 13
10 3 4 -11 6 -11 14 0z m52 -9 c-7 -4 -14 -16 -17 -27 -4 -15 -5 -14 -6 8 -1
20 4 27 17 27 11 0 13 -3 6 -8z m-177 -17 c0 -8 -4 -12 -9 -9 -5 3 -6 10 -3
15 9 13 12 11 12 -6z m53 11 c0 -2 -8 -10 -17 -17 -16 -13 -17 -12 -4 4 13 16
21 21 21 13z m-1600 -11 c0 -7 -30 -13 -34 -7 -3 4 4 9 15 9 10 1 19 0 19 -2z
m1683 -10 c-3 -9 -8 -14 -10 -11 -3 3 -2 9 2 15 9 16 15 13 8 -4z m342 -16 c1
-11 -1 -22 -5 -24 -3 -2 -6 9 -6 25 0 33 9 32 11 -1z m29 15 c3 -8 2 -12 -4
-9 -6 3 -10 10 -10 16 0 14 7 11 14 -7z m-1894 -18 c-7 -7 -13 -7 -20 0 -6 6
-3 10 10 10 13 0 16 -4 10 -10z m167 -1 c0 -8 -4 -12 -9 -9 -5 3 -6 10 -3 15
9 13 12 11 12 -6z m1333 -15 c0 -5 -5 -10 -11 -10 -5 0 -7 5 -4 10 3 6 8 10
11 10 2 0 4 -4 4 -10z m40 6 c0 -2 -7 -7 -16 -10 -8 -3 -12 -2 -9 4 6 10 25
14 25 6z m-1790 -20 c-7 -7 -13 -7 -20 0 -6 6 -3 10 10 10 13 0 16 -4 10 -10z
m175 4 c3 -6 -1 -7 -9 -4 -18 7 -21 14 -7 14 6 0 13 -4 16 -10z m199 2 c2 -4
-4 -8 -14 -8 -10 0 -16 4 -14 8 3 4 9 8 14 8 5 0 11 -4 14 -8z m1767 -26 c16
9 10 -2 -10 -20 -19 -17 -19 -17 -16 1 2 10 4 23 5 28 1 6 4 4 7 -3 2 -6 9
-10 14 -6z m-524 -12 c-3 -3 -12 -4 -19 -1 -8 3 -5 6 6 6 11 1 17 -2 13 -5z
m-1367 -9 c0 -2 -10 -9 -22 -15 -22 -11 -22 -10 -4 4 21 17 26 19 26 11z
m1307 -17 c-3 -8 -6 -5 -6 6 -1 11 2 17 5 13 3 -3 4 -12 1 -19z m-1647 4 c0
-5 -7 -9 -15 -9 -8 0 -12 4 -9 9 3 4 9 8 15 8 5 0 9 -4 9 -8z m1783 -15 c6
-15 -27 -17 -40 -2 -5 4 -3 5 4 1 6 -3 14 -2 18 4 8 13 12 13 18 -3z m-1827
-22 c-21 -16 -21 -26 2 -19 13 5 14 4 3 -4 -8 -6 -20 -8 -27 -5 -17 6 3 40 24
40 12 0 12 -2 -2 -12z m149 5 c-3 -5 -12 -10 -18 -10 -7 0 -6 4 3 10 19 12 23
12 15 0z m165 -5 c-7 -8 -17 -15 -23 -15 -6 0 -2 7 9 15 25 19 30 19 14 0z
m2334 -6 c19 3 25 -1 40 -26 l17 -28 -19 22 c-11 12 -22 19 -26 16 -3 -4 -6 0
-6 8 0 11 -2 11 -10 -1 -9 -13 -10 -13 -10 0 0 13 -1 13 -10 0 -5 -8 -7 -23
-4 -34 4 -12 2 -16 -5 -12 -5 4 -9 20 -8 35 1 16 5 27 10 24 4 -2 7 2 7 9 0
10 2 10 9 0 4 -8 11 -13 15 -13z m-451 1 c3 6 5 6 3 -1 -3 -17 -33 -20 -33 -3
0 10 4 11 13 3 8 -7 14 -6 17 1z m-2033 -10 c0 -5 -8 -10 -18 -10 -10 0 -24
-6 -31 -12 -11 -11 -12 -10 -6 0 5 11 32 26 53 31 1 1 2 -3 2 -9z m120 -14 c0
-2 -7 -7 -16 -10 -8 -3 -12 -2 -9 4 6 10 25 14 25 6z m1417 -18 c-3 -8 -6 -5
-6 6 -1 11 2 17 5 13 3 -3 4 -12 1 -19z m-1777 -12 c0 -2 -7 -7 -16 -10 -8 -3
-12 -2 -9 4 6 10 25 14 25 6z m2204 -11 c-4 -8 -8 -15 -10 -15 -2 0 -4 7 -4
15 0 8 4 15 10 15 5 0 7 -7 4 -15z m-2019 -25 c-18 -20 -35 -18 -35 3 0 8 3 7
9 -2 7 -11 11 -10 22 7 7 12 15 19 18 17 2 -3 -4 -14 -14 -25z m2490 21 c-3
-5 -1 -12 5 -16 5 -3 10 -14 9 -23 0 -13 -3 -12 -11 6 -6 12 -16 22 -22 22 -6
0 -4 5 4 10 19 12 23 12 15 1z m-2381 -9 c2 -4 -4 -8 -14 -8 -10 0 -16 4 -14
8 3 4 9 8 14 8 5 0 11 -4 14 -8z m1881 -1 c3 -5 2 -12 -3 -15 -5 -3 -9 1 -9 9
0 17 3 19 12 6z m-2191 -9 c3 -5 -1 -9 -9 -9 -8 0 -12 4 -9 9 3 4 7 8 9 8 2 0
6 -4 9 -8z m2063 2 c-3 -3 -12 -4 -19 -1 -8 3 -5 6 6 6 11 1 17 -2 13 -5z
m-280 -26 c-3 -8 -6 -5 -6 6 -1 11 2 17 5 13 3 -3 4 -12 1 -19z m-1507 -22
c-7 -7 -13 -7 -20 0 -6 6 -3 10 10 10 13 0 16 -4 10 -10z m1684 -8 c-3 -5 -12
-4 -20 3 -19 16 -18 18 6 12 11 -3 17 -9 14 -15z m93 16 c-3 -3 -12 -4 -19 -1
-8 3 -5 6 6 6 11 1 17 -2 13 -5z m-250 -41 c-3 -10 -5 -4 -5 12 0 17 2 24 5
18 2 -7 2 -21 0 -30z m834 14 c-6 -8 -8 -17 -4 -20 3 -4 1 -7 -6 -7 -7 0 -9
-5 -6 -10 4 -6 10 -8 14 -6 4 3 8 -1 8 -9 0 -10 -4 -12 -12 -5 -7 5 -15 7 -18
4 -4 -4 -4 3 -2 16 4 22 23 50 32 50 3 0 0 -6 -6 -13z m-784 -13 c-3 -3 -12
-4 -19 -1 -8 3 -5 6 6 6 11 1 17 -2 13 -5z m-1946 -22 c-5 -10 -18 -25 -27
-33 -11 -9 -9 -2 6 19 26 35 36 42 21 14z m2916 -4 c-3 -8 -6 -5 -6 6 -1 11 2
17 5 13 3 -3 4 -12 1 -19z m-2652 2 c-3 -5 -12 -10 -18 -10 -7 0 -6 4 3 10 19
12 23 12 15 0z m-178 -18 c-10 -10 -14 -22 -10 -27 5 -4 2 -5 -4 -1 -8 4 -13
2 -13 -5 0 -7 -3 -9 -7 -6 -3 4 4 18 17 32 27 29 42 35 17 7z m253 4 c0 -2 -8
-10 -17 -17 -16 -13 -17 -12 -4 4 13 16 21 21 21 13z m1520 -52 c0 -2 -9 0
-20 6 -11 6 -20 13 -20 16 0 2 9 0 20 -6 11 -6 20 -13 20 -16z m1161 -6 c12
-22 11 -22 -6 -8 -17 14 -18 13 -12 -2 3 -10 2 -28 -2 -40 -7 -18 -9 -14 -6
17 4 54 4 55 10 55 2 0 10 -10 16 -22z m-1201 -8 c0 -5 -2 -10 -4 -10 -3 0 -8
5 -11 10 -3 6 -1 10 4 10 6 0 11 -4 11 -10z m836 -12 c4 -6 3 -8 -4 -4 -6 3
-13 2 -17 -4 -3 -5 -11 -10 -18 -10 -6 0 -2 7 9 15 23 18 21 17 30 3z m-881
-8 c-3 -5 -12 -10 -18 -10 -7 0 -6 4 3 10 19 12 23 12 15 0z m-1695 -3 c0 -2
-12 -14 -27 -28 l-26 -24 19 27 c16 23 34 36 34 25z m2943 -22 c-3 -9 -8 -14
-10 -11 -3 3 -2 9 2 15 9 16 15 13 8 -4z m-1348 -25 c-3 -5 -12 -10 -18 -10
-7 0 -6 4 3 10 19 12 23 12 15 0z m881 -25 c-9 -9 -16 -12 -16 -6 0 6 -5 11
-11 11 -5 0 -7 -4 -4 -10 3 -5 1 -10 -5 -10 -7 0 -10 6 -7 13 2 6 11 12 20 12
8 0 19 4 23 8 4 4 9 5 12 2 2 -2 -3 -11 -12 -20z m-946 1 c0 -2 -7 -7 -16 -10
-8 -3 -12 -2 -9 4 6 10 25 14 25 6z"/>
<path d="M2302 1020 c-31 -13 -39 -40 -17 -56 25 -18 89 -18 105 1 13 16 5 55
-13 55 -7 0 -21 2 -32 5 -11 2 -30 0 -43 -5z m31 -30 c3 -11 1 -18 -4 -14 -5
3 -9 12 -9 20 0 20 7 17 13 -6z m32 -10 c3 -5 1 -10 -4 -10 -6 0 -11 5 -11 10
0 6 2 10 4 10 3 0 8 -4 11 -10z"/>
</g>
</svg>
